<svg xmlns="http://www.w3.org/2000/svg" xmlns:xlink="http://www.w3.org/1999/xlink" width="551.115" height="528.359" viewBox="0 0 551.115 528.359">
  <defs>
    <linearGradient id="linear-gradient" x1="1.008" y1="0.48" x2="-0.009" y2="0.52" gradientUnits="objectBoundingBox">
      <stop offset="0" stop-color="#ffe200"/>
      <stop offset="1" stop-color="#f08300"/>
    </linearGradient>
    <linearGradient id="linear-gradient-2" x1="1.015" y1="0.925" x2="-0.027" y2="0.075" xlink:href="#linear-gradient"/>
    <linearGradient id="linear-gradient-3" x1="0.758" y1="1.008" x2="0.242" y2="-0.033" xlink:href="#linear-gradient"/>
    <linearGradient id="linear-gradient-4" x1="0" y1="0.5" x2="1" y2="0.5" xlink:href="#linear-gradient"/>
    <linearGradient id="linear-gradient-5" x1="-0.015" y1="0.924" x2="1.027" y2="0.076" xlink:href="#linear-gradient"/>
    <linearGradient id="linear-gradient-6" x1="0.243" y1="1.008" x2="0.757" y2="-0.034" xlink:href="#linear-gradient"/>
  </defs>
  <g id="Petrochina_中石油" data-name="Petrochina 中石油" transform="translate(-49.098 0.001)">
    <path id="路径_188" data-name="路径 188" d="M589.692,271.625c0,135.763-111.071,245.84-248.06,245.84S92.645,404.6,93.581,271.625,205.988,25.212,341.634,25.785,589.692,135.861,589.692,271.625Z" transform="translate(-17.256 -9.562)" fill="#fff"/>
    <g id="组_14" data-name="组 14">
      <path id="路径_189" data-name="路径 189" d="M324.57,276.315,89.543,342.841C96.375,368.951,85.788,404,101.1,425.2c16.011,22.167,55,22.423,77,38.635,22.084,16.223,34.228,53.505,60.847,62.2,25.882,8.5,57.852-14.038,86.6-14.066,27.831-.056,58.869,22.68,83.99,14.686,26.379-8.5,38.535-45.5,60.606-61.354,22.156-15.988,61.115-15.86,77.314-37.819,16.223-22,3.146-57.852,11.748-84.37Z" fill="#c7000d"/>
      <path id="路径_190" data-name="路径 190" d="M274.867,258.723a9.219,9.219,0,0,0-5.284-8.346L88.145,189.84c-9.9,24.657-39.1,47.277-39.047,74.8.072,27.507,31.11,49.89,39.455,74.728l180.7-72.114a9.27,9.27,0,0,0,5.608-8.53Z" fill-rule="evenodd" fill="url(#linear-gradient)"/>
      <path id="路径_191" data-name="路径 191" d="M276.176,232.793h.1a9.413,9.413,0,0,0,8.478-5.46,9.253,9.253,0,0,0-.3-8.25L177.147,64.958c-22.58,14.077-58.853,14.854-74.36,35.936-16.183,21.9-4.943,58.757-13.3,85.264l186.69,46.636Z" fill-rule="evenodd" fill="url(#linear-gradient-2)"/>
      <path id="路径_192" data-name="路径 192" d="M309.911,209.781a9.137,9.137,0,0,0,5.592-7.445l7.021-186.041C295.257,15.3,265.248-6.117,240.691,1.72c-26.25,8.446-38.407,45.18-60.291,61.087L299.844,207.9a9.258,9.258,0,0,0,10.067,1.881Z" fill-rule="evenodd" fill="url(#linear-gradient-3)"/>
      <path id="路径_193" data-name="路径 193" d="M375.449,258.543v.348a9.3,9.3,0,0,0,5.592,8.362l179.73,72.114c8.333-24.837,39.4-47.22,39.442-74.728s-29.148-50.143-39-74.8L380.744,250.377A9.222,9.222,0,0,0,375.449,258.543Z" fill-rule="evenodd" fill="url(#linear-gradient-4)"/>
      <path id="路径_194" data-name="路径 194" d="M373.516,231.96h.1l186.254-45.8c-8.39-26.506,2.81-63.364-13.317-85.263-15.547-21.083-51.808-21.86-74.376-35.937L365.351,218.238a9.2,9.2,0,0,0-.28,8.246,9.36,9.36,0,0,0,8.446,5.476Z" fill-rule="evenodd" fill="url(#linear-gradient-5)"/>
      <path id="路径_195" data-name="路径 195" d="M339.384,209.781a9.3,9.3,0,0,1-5.592-7.445l-7.3-186.041C353.786,15.3,384.1-6.117,408.632,1.72,434.87,10.166,447.055,46.9,468.9,62.807L349.48,207.9a9.292,9.292,0,0,1-10.1,1.881Z" fill-rule="evenodd" fill="url(#linear-gradient-6)"/>
    </g>
  </g>
</svg>
